<svg width="34" height="33" viewBox="0 0 34 33" fill="none" xmlns="http://www.w3.org/2000/svg">
<path d="M33.0578 6.73852C32.9434 6.60512 32.8002 6.49783 32.6385 6.42422C32.4768 6.35061 32.3004 6.31247 32.1219 6.3125H7.53041L6.60358 1.35023C6.55253 1.07662 6.40448 0.829122 6.18524 0.650902C5.966 0.472682 5.68947 0.37504 5.40388 0.375H1.63406C1.31063 0.375 1.00044 0.500111 0.771738 0.722811C0.543035 0.94551 0.414551 1.24756 0.414551 1.5625C0.414551 1.87744 0.543035 2.17949 0.771738 2.40219C1.00044 2.62489 1.31063 2.75 1.63406 2.75H4.37797L8.27431 23.5743C8.38908 24.1919 8.66937 24.769 9.08681 25.2472C8.51066 25.7712 8.09481 26.4404 7.88537 27.1804C7.67593 27.9205 7.68109 28.7027 7.90027 29.4401C8.11945 30.1775 8.54408 30.8414 9.12709 31.3582C9.7101 31.8749 10.4287 32.2244 11.2032 32.3677C11.9777 32.5111 12.7779 32.4428 13.5149 32.1704C14.252 31.8979 14.8972 31.4321 15.3789 30.8244C15.8607 30.2167 16.1602 29.491 16.2443 28.7277C16.3283 27.9644 16.1936 27.1933 15.8551 26.5H22.7789C22.5061 27.0562 22.3649 27.6649 22.3658 28.2812C22.3658 29.1033 22.6161 29.9068 23.0851 30.5903C23.5541 31.2738 24.2207 31.8065 25.0007 32.1211C25.7806 32.4357 26.6388 32.518 27.4668 32.3576C28.2947 32.1973 29.0553 31.8014 29.6522 31.2202C30.2491 30.6389 30.6557 29.8983 30.8203 29.0921C30.985 28.2859 30.9005 27.4502 30.5775 26.6907C30.2544 25.9313 29.7073 25.2821 29.0054 24.8255C28.3035 24.3688 27.4783 24.125 26.6341 24.125H11.8734C11.5878 24.125 11.3113 24.0273 11.092 23.8491C10.8728 23.6709 10.7247 23.4234 10.6737 23.1498L10.1905 20.5625H27.8734C28.7302 20.5624 29.5597 20.2695 30.2175 19.7348C30.8752 19.2001 31.3193 18.4577 31.4725 17.6368L33.3261 7.71227C33.3575 7.54073 33.3498 7.36457 33.3034 7.19629C33.257 7.02801 33.1732 6.87172 33.0578 6.73852ZM13.8292 28.2812C13.8292 28.6335 13.7219 28.9779 13.5209 29.2709C13.3199 29.5638 13.0342 29.7921 12.6999 29.9269C12.3657 30.0617 11.9979 30.097 11.643 30.0283C11.2882 29.9595 10.9623 29.7899 10.7064 29.5408C10.4506 29.2917 10.2764 28.9743 10.2058 28.6288C10.1352 28.2832 10.1714 27.9251 10.3099 27.5996C10.4483 27.2741 10.6828 26.9959 10.9836 26.8002C11.2845 26.6045 11.6381 26.5 11.9999 26.5C12.4851 26.5 12.9504 26.6877 13.2934 27.0217C13.6365 27.3558 13.8292 27.8088 13.8292 28.2812ZM28.4633 28.2812C28.4633 28.6335 28.356 28.9779 28.155 29.2709C27.954 29.5638 27.6684 29.7921 27.3341 29.9269C26.9998 30.0617 26.632 30.097 26.2772 30.0283C25.9224 29.9595 25.5964 29.7899 25.3406 29.5408C25.0848 29.2917 24.9105 28.9743 24.8399 28.6288C24.7694 28.2832 24.8056 27.9251 24.944 27.5996C25.0825 27.2741 25.317 26.9959 25.6178 26.8002C25.9186 26.6045 26.2723 26.5 26.6341 26.5C27.1192 26.5 27.5845 26.6877 27.9276 27.0217C28.2706 27.3558 28.4633 27.8088 28.4633 28.2812Z" fill="black"/>
</svg>
